<?xml version="1.0" standalone="no"?>
<!DOCTYPE svg PUBLIC "-//W3C//DTD SVG 20010904//EN"
 "http://www.w3.org/TR/2001/REC-SVG-20010904/DTD/svg10.dtd">
<svg version="1.0" xmlns="http://www.w3.org/2000/svg"
 width="512.000000pt" height="512.000000pt" viewBox="0 0 512.000000 512.000000"
 preserveAspectRatio="xMidYMid meet">
<metadata>
Created by potrace 1.14, written by Peter Selinger 2001-2017
</metadata>
<g transform="translate(0.000000,512.000000) scale(0.100000,-0.100000)"
fill="#000000" stroke="none">
<path d="M377 4643 c3 -7 1 -13 -4 -13 -6 0 -9 -18 -9 -39 1 -22 -2 -37 -7
-34 -5 3 -6 -9 -4 -26 3 -17 2 -33 -3 -36 -4 -2 -6 -18 -4 -35 3 -21 0 -29 -8
-24 -7 5 -8 3 -2 -7 12 -20 14 -39 3 -39 -5 0 -9 -5 -9 -11 0 -5 4 -8 9 -4 6
3 8 -4 5 -17 -3 -13 -7 -30 -8 -38 -2 -8 1 -20 6 -27 5 -7 6 -18 1 -25 -10
-17 -11 -278 -1 -278 5 0 8 -12 8 -27 0 -63 2 -73 9 -73 4 0 13 -22 20 -50 7
-27 17 -50 23 -50 5 0 7 -4 3 -9 -3 -5 -1 -12 5 -16 6 -4 8 -11 5 -16 -4 -5
-1 -9 4 -9 6 0 11 -9 11 -21 0 -11 5 -17 10 -14 6 3 10 0 10 -8 0 -7 9 -23 20
-35 12 -12 17 -22 13 -22 -4 0 7 -12 25 -26 17 -15 30 -30 27 -34 -2 -4 7 -12
21 -19 15 -6 22 -16 18 -23 -4 -7 -3 -8 4 -4 7 4 12 2 12 -5 0 -7 3 -10 6 -6
3 3 20 -8 36 -24 17 -16 37 -29 44 -29 7 0 14 -4 16 -9 5 -13 149 -82 159 -75
5 3 9 1 9 -3 0 -5 8 -9 18 -10 31 -2 47 -8 54 -18 5 -6 8 -5 8 3 0 10 5 10 20
2 15 -8 20 -8 20 2 0 9 2 10 8 2 8 -13 110 -15 118 -3 2 4 16 6 29 3 16 -3 25
0 25 8 0 9 3 8 10 -2 8 -12 10 -12 10 -1 0 10 3 11 13 2 8 -6 17 -8 20 -4 4 3
7 1 7 -5 0 -6 10 -22 23 -34 12 -13 23 -30 25 -38 2 -8 8 -17 13 -18 5 -2 7
-8 3 -13 -3 -5 0 -9 6 -9 6 0 8 -5 5 -10 -4 -6 -1 -18 6 -26 10 -13 10 -17 0
-24 -9 -5 -10 -10 -3 -14 6 -4 10 -19 8 -34 -1 -15 1 -39 5 -54 5 -20 4 -25
-6 -22 -9 4 -11 -3 -7 -22 3 -17 1 -25 -6 -21 -5 4 -13 0 -16 -9 -3 -8 -10
-12 -16 -9 -5 3 -10 -1 -10 -9 0 -9 -6 -16 -12 -16 -7 0 -24 -12 -37 -25 -13
-14 -27 -25 -32 -25 -5 0 -9 -7 -9 -15 0 -8 -7 -15 -15 -15 -20 0 -55 -31 -48
-43 3 -6 1 -7 -5 -3 -6 3 -22 -5 -36 -19 -14 -14 -26 -22 -26 -18 0 4 -7 -2
-15 -14 -8 -12 -31 -31 -49 -43 -19 -11 -38 -31 -43 -43 -11 -34 -11 -107 1
-107 6 0 4 -5 -4 -10 -12 -7 -12 -10 -1 -10 8 0 11 -6 7 -15 -3 -9 1 -18 9
-21 8 -4 13 -9 11 -13 -3 -4 13 -26 35 -51 21 -24 39 -39 39 -34 0 5 5 1 11
-8 5 -10 17 -18 24 -18 8 0 15 -5 15 -11 0 -8 5 -8 15 1 9 8 15 8 15 2 0 -26
74 3 124 49 10 10 24 16 29 12 6 -3 7 -1 4 4 -4 6 0 16 8 23 11 10 18 9 30 -4
9 -9 12 -16 7 -16 -5 0 -9 -27 -8 -60 0 -34 5 -60 11 -60 5 0 3 -5 -5 -10 -13
-9 -13 -10 0 -10 12 0 12 -2 1 -9 -9 -6 -10 -11 -2 -15 8 -5 8 -13 1 -27 -6
-11 -8 -25 -3 -32 10 -16 11 -47 1 -41 -4 3 -8 1 -8 -5 0 -5 5 -13 10 -16 7
-4 7 -13 0 -26 -6 -11 -8 -25 -3 -32 10 -16 11 -47 1 -41 -4 3 -8 1 -8 -5 0
-5 5 -13 10 -16 7 -4 7 -13 0 -26 -6 -11 -8 -25 -3 -32 10 -16 11 -47 1 -41
-4 3 -8 1 -8 -5 0 -5 5 -13 10 -16 7 -4 7 -13 0 -26 -6 -11 -8 -25 -3 -32 10
-16 11 -47 1 -41 -4 3 -8 1 -8 -5 0 -5 5 -13 10 -16 7 -4 7 -13 0 -26 -6 -11
-8 -25 -3 -32 10 -16 11 -47 1 -41 -4 3 -8 1 -8 -5 0 -5 5 -13 10 -16 7 -4 7
-13 0 -26 -6 -11 -8 -25 -3 -32 10 -16 11 -47 1 -41 -4 3 -8 1 -8 -5 0 -5 5
-13 10 -16 7 -4 7 -13 0 -26 -6 -11 -8 -25 -3 -32 10 -16 11 -47 1 -41 -4 3
-8 1 -8 -5 0 -5 5 -13 10 -16 7 -4 7 -13 0 -26 -6 -11 -8 -25 -3 -32 10 -16
11 -47 1 -41 -4 3 -8 1 -8 -5 0 -5 5 -13 10 -16 7 -4 6 -13 -1 -26 -7 -14 -7
-24 0 -33 6 -7 8 -16 3 -20 -4 -4 -7 -40 -8 -79 -1 -47 -5 -72 -12 -73 -7 -1
-14 -3 -17 -4 -3 -1 -8 -3 -12 -4 -5 -1 -14 -5 -21 -9 -6 -5 -12 -5 -12 -1 0
4 -7 -1 -16 -12 -8 -10 -12 -12 -8 -4 4 8 -4 4 -17 -10 -14 -14 -24 -26 -23
-28 1 -2 -2 -18 -6 -37 -5 -24 -3 -40 7 -54 8 -12 11 -21 7 -21 -3 0 -1 -6 5
-13 6 -8 9 -16 6 -19 -3 -3 13 -11 35 -18 22 -7 40 -17 40 -21 0 -4 14 -6 30
-5 17 1 30 -1 30 -6 0 -4 5 -8 11 -8 5 0 7 6 3 13 -5 8 -2 8 9 -2 9 -7 17 -9
17 -4 0 12 114 4 138 -11 7 -4 12 -2 12 6 0 9 3 9 10 -2 5 -8 10 -11 10 -6 0
5 7 3 15 -4 12 -10 15 -10 15 0 0 9 4 9 13 3 12 -10 45 -10 99 0 16 3 29 1 32
-6 2 -7 5 -5 5 4 1 10 9 15 24 13 12 -1 23 -3 25 -4 8 -7 28 -4 34 5 5 6 8 3
8 -6 0 -18 24 -32 34 -21 10 10 127 9 133 -1 3 -5 9 -3 14 4 7 11 9 11 9 1 0
-7 5 -10 10 -7 6 4 8 10 6 14 -3 4 1 8 9 8 8 0 12 -4 9 -8 -2 -4 0 -10 6 -14
5 -3 10 -1 10 5 0 6 5 8 11 4 8 -4 7 -9 -2 -15 -8 -5 -9 -9 -3 -9 18 0 12 -34
-10 -52 -12 -9 -16 -17 -10 -18 5 0 15 5 21 11 8 8 13 8 17 0 19 -30 72 -1 55
31 -5 10 -6 18 -2 18 14 -1 58 -81 59 -108 2 -38 3 -39 14 -22 5 8 7 23 4 33
-3 9 0 17 6 17 6 0 9 -4 5 -9 -3 -5 -1 -12 5 -16 5 -3 10 2 11 12 0 12 2 13 6
5 3 -8 -4 -22 -16 -33 -12 -11 -21 -25 -21 -32 0 -7 7 -4 14 6 13 17 14 17 21
0 5 -10 8 -21 7 -25 -1 -4 7 -6 18 -5 26 2 25 9 -1 25 -14 9 -18 19 -14 30 4
9 7 25 7 34 -1 16 45 54 54 45 2 -2 -7 -10 -21 -17 -14 -7 -25 -17 -25 -22 0
-5 5 -6 10 -3 15 9 12 -4 -5 -21 -19 -20 -19 -31 0 -31 9 0 14 6 11 14 -3 7
-1 13 5 13 7 0 9 -11 5 -27 -6 -26 -5 -27 8 -10 11 15 12 24 4 43 -6 13 -9 27
-6 29 11 12 58 15 58 5 0 -6 -4 -8 -10 -5 -5 3 -10 -1 -10 -9 0 -9 5 -16 10
-16 6 0 10 -4 10 -10 0 -21 -20 -9 -26 15 -3 14 -10 22 -16 19 -5 -3 -6 -13
-3 -23 4 -9 8 -27 10 -41 3 -36 16 -61 27 -54 6 4 5 10 -3 15 -7 4 -10 12 -5
16 5 4 11 2 13 -5 3 -6 9 -10 13 -7 14 9 0 34 -16 28 -8 -3 -14 0 -14 7 0 6 4
9 9 6 13 -8 32 19 26 36 -3 8 2 21 12 29 17 13 17 13 4 -4 -11 -14 -11 -21 -3
-29 9 -9 12 -7 12 7 0 17 2 17 10 5 6 -10 4 -18 -8 -25 -9 -5 -18 -19 -20 -30
-3 -18 -1 -18 20 5 14 14 30 34 37 45 12 20 12 20 6 0 -12 -33 -11 -68 1 -72
7 -2 10 6 9 22 -2 14 3 31 10 39 11 10 11 16 2 27 -10 11 -9 11 5 0 15 -11 15
-41 -1 -41 -4 0 -7 -10 -8 -22 -2 -23 -2 -23 18 2 10 14 25 32 31 40 7 8 12
18 10 23 -1 5 2 6 8 2 11 -7 -2 -31 -25 -47 -5 -4 -6 -11 -1 -15 4 -4 16 3 27
16 24 29 32 22 38 -31 1 -10 31 -38 40 -38 4 0 8 7 8 15 0 9 -6 14 -13 11 -9
-3 -11 1 -7 11 4 11 2 14 -5 9 -7 -4 -12 -2 -12 3 0 16 11 13 33 -7 16 -13 19
-14 15 -2 -2 8 -14 19 -25 24 -11 5 -26 18 -33 29 -9 15 -4 13 23 -7 18 -14
37 -23 40 -19 4 3 16 -2 27 -12 11 -10 20 -13 20 -8 0 6 -7 16 -15 23 -8 7
-15 20 -14 29 0 11 3 10 9 -5 10 -24 60 -67 69 -59 3 4 -9 17 -27 31 -18 14
-32 30 -32 35 0 5 14 -4 31 -21 40 -38 62 -40 26 -2 -19 20 -23 29 -13 29 8 0
14 -3 12 -6 -2 -3 5 -14 15 -25 17 -18 18 -18 41 5 14 13 36 25 51 26 25 2 26
1 12 -13 -11 -11 -12 -20 -5 -33 5 -10 7 -30 4 -45 -4 -24 -3 -25 16 -14 11 7
20 16 20 21 0 4 -5 5 -10 2 -6 -3 -10 -1 -10 4 0 6 6 11 13 11 8 0 7 4 -3 11
-12 8 -10 9 8 4 23 -7 31 9 10 19 -7 3 -5 4 4 3 9 -1 23 7 31 17 14 19 38 15
36 -7 0 -9 -2 -9 -6 1 -2 6 -9 12 -14 12 -6 0 -8 -4 -5 -9 3 -5 -1 -11 -9 -15
-8 -3 -15 -11 -15 -18 0 -9 3 -9 12 0 7 7 19 12 27 11 10 0 7 -4 -6 -9 -13 -5
-23 -14 -23 -19 0 -5 12 -3 27 4 15 8 28 22 28 31 0 10 6 18 13 20 7 1 8 0 2
-3 -5 -2 -10 -9 -10 -14 0 -6 4 -7 10 -4 9 5 14 -6 12 -26 -1 -3 12 -6 28 -6
16 0 29 3 28 6 -2 20 3 31 12 26 6 -3 10 -2 10 2 0 5 -13 17 -30 26 -17 10
-30 22 -30 27 0 6 8 3 18 -5 9 -8 25 -21 36 -28 15 -11 16 -17 8 -34 -11 -20
-7 -33 10 -33 4 0 7 3 7 8 -3 19 2 32 12 32 8 0 7 -6 -2 -17 -12 -14 -12 -16
1 -11 8 3 14 13 14 22 -1 9 3 16 9 16 7 0 7 4 -1 12 -15 15 -15 28 -1 28 5 0
8 -4 4 -9 -3 -6 3 -15 14 -20 26 -14 28 -14 28 4 0 9 -6 14 -14 11 -8 -3 -11
-1 -8 5 4 5 14 7 23 5 25 -8 43 6 32 24 -7 10 -10 11 -10 3 0 -7 -5 -13 -12
-13 -9 0 -9 3 0 12 7 7 12 17 12 23 -1 5 -10 -1 -20 -14 -13 -15 -27 -22 -40
-18 -27 7 -47 -18 -30 -38 7 -8 8 -15 4 -15 -5 0 -15 9 -21 19 -10 16 -9 20 3
25 8 3 12 11 9 17 -4 5 1 19 11 30 16 18 16 19 -7 20 -15 0 -18 3 -9 6 8 3 21
12 28 21 7 10 12 11 12 4 0 -7 5 -12 11 -12 5 0 7 4 4 10 -3 5 -1 10 4 10 6 0
11 -5 11 -12 0 -6 7 -3 15 8 15 19 15 19 8 -1 -6 -18 -5 -18 10 -6 9 7 14 18
10 25 -4 6 1 5 10 -2 9 -8 21 -11 27 -7 5 3 13 -1 16 -10 6 -13 8 -14 15 -3 6
9 9 10 9 1 0 -9 7 -10 25 -3 18 7 25 6 25 -3 0 -7 3 -8 8 -2 4 6 15 11 24 13
13 2 16 -2 12 -15 -5 -17 -5 -17 6 0 6 9 8 22 4 29 -5 7 -3 8 7 2 8 -5 22 -7
31 -6 10 2 34 -9 55 -25 20 -15 33 -22 29 -15 -7 11 -4 12 10 4 27 -14 92 -9
112 9 10 9 24 13 31 11 8 -3 11 0 7 6 -3 5 1 12 9 16 8 3 15 1 15 -3 0 -5 8
-7 19 -4 10 3 22 -1 26 -8 6 -8 4 -10 -6 -4 -8 5 -11 4 -6 -1 5 -5 13 -10 18
-10 5 -1 14 -2 20 -3 5 0 8 -4 6 -9 -8 -11 103 -12 125 -1 16 9 19 8 13 -2 -6
-9 -4 -10 6 -3 14 9 19 10 39 13 6 0 10 8 10 16 0 8 6 14 13 12 6 -1 11 5 10
13 -2 9 5 16 15 17 52 2 96 11 100 21 2 6 9 9 17 6 7 -3 16 0 20 5 3 6 11 8
17 5 7 -4 8 -2 4 4 -4 7 -2 12 4 12 6 0 8 4 5 10 -3 5 -1 10 5 10 13 0 51 80
44 92 -3 4 1 8 8 8 9 0 9 3 -2 10 -8 5 -10 10 -4 10 6 0 11 7 11 15 0 8 -5 15
-11 15 -6 0 -4 5 4 10 8 5 10 10 4 10 -6 0 -11 12 -11 27 -1 15 -6 29 -12 31
-6 2 -9 8 -5 13 3 5 0 9 -7 9 -7 0 -10 3 -6 6 7 7 -38 54 -51 54 -6 0 -17 11
-26 25 -18 27 -20 24 29 40 8 2 15 -1 15 -8 0 -8 3 -8 9 2 5 8 16 11 30 6 11
-3 21 -3 21 2 0 4 15 8 33 9 48 1 82 10 80 22 -1 5 6 8 17 5 15 -4 18 0 16 21
-3 22 -1 24 12 14 13 -11 14 -10 3 9 -10 20 -8 27 21 55 18 18 33 35 33 38 0
3 6 4 13 4 9 -2 10 2 2 11 -8 10 -5 19 12 36 13 12 18 19 11 15 -6 -3 -14 -2
-18 4 -3 5 -1 10 5 10 6 0 10 6 9 12 -1 7 1 21 6 31 4 10 2 23 -4 31 -10 12
-8 14 11 9 15 -3 19 -2 11 4 -14 10 -6 86 7 78 5 -3 6 5 2 17 -5 21 -4 22 14
8 19 -14 19 -14 1 7 -18 20 -18 22 0 32 17 10 17 10 -1 11 -15 0 -16 3 -6 15
6 8 9 18 6 23 -3 6 0 15 7 21 14 11 16 38 4 58 -4 6 -2 15 4 19 8 5 9 3 4 -6
-5 -9 -4 -11 4 -6 9 6 9 11 0 22 -9 11 -8 14 5 14 18 0 22 15 6 25 -8 5 -7 12
2 23 11 13 11 14 -2 7 -13 -8 -13 -7 -1 8 13 17 17 34 20 90 1 18 5 26 12 21
8 -5 8 -1 0 14 -8 16 -7 21 5 26 13 5 14 9 4 21 -10 12 -10 15 1 15 12 0 12 2
1 9 -11 7 -11 11 2 23 11 11 12 18 3 27 -8 8 -8 11 2 11 8 0 11 6 7 16 -3 8
-2 12 4 9 6 -3 10 -1 10 4 0 6 -5 11 -11 11 -8 0 -8 5 1 15 10 12 10 18 -1 32
-8 9 -9 14 -3 10 16 -9 25 28 10 44 -8 9 -7 11 7 6 9 -4 17 -2 17 3 0 6 -7 10
-16 10 -8 0 -12 5 -9 10 3 6 1 10 -4 10 -6 0 -11 5 -11 11 0 5 6 7 13 4 14 -7
-21 24 -49 43 -11 7 -12 10 -4 6 12 -6 13 -5 2 7 -11 12 -14 12 -22 -1 -8 -12
-10 -12 -10 -1 0 7 -6 11 -14 8 -7 -3 -19 0 -25 6 -8 8 -11 8 -11 0 0 -6 -9
-9 -20 -6 -23 6 -25 14 -8 31 9 9 9 12 1 12 -8 0 -9 9 -3 30 5 19 5 32 -2 36
-7 4 -7 9 1 13 7 5 5 14 -8 28 -11 11 -17 24 -14 27 4 3 1 6 -6 6 -6 0 -23 10
-37 23 -13 12 -34 30 -44 40 -11 9 -25 17 -31 17 -5 0 -7 5 -4 10 3 6 -1 10
-9 10 -9 0 -16 5 -16 10 0 6 -4 10 -10 10 -5 0 -23 14 -40 31 -16 18 -30 28
-30 23 0 -5 -11 3 -24 19 -13 15 -28 27 -33 27 -5 0 -20 13 -33 29 -14 15 -30
27 -36 24 -5 -2 -16 8 -24 22 -7 14 -19 25 -26 25 -7 0 -18 8 -23 18 -6 9 -11
13 -11 7 0 -5 -10 1 -21 15 -11 14 -17 19 -13 11 5 -9 3 -12 -4 -7 -7 4 -12
14 -12 22 0 8 -3 13 -7 12 -5 -2 -19 5 -33 15 -13 9 -21 17 -16 17 5 0 -8 11
-28 25 -20 14 -40 25 -44 25 -4 0 -14 9 -22 20 -8 11 -18 20 -23 20 -4 0 -18
11 -31 25 -13 13 -26 22 -29 18 -4 -3 -7 2 -7 11 0 12 -5 16 -14 13 -9 -4 -17
2 -21 14 -4 11 -9 18 -13 15 -3 -3 -19 9 -35 27 -17 17 -26 25 -22 17 8 -13 7
-13 -11 0 -10 8 -25 23 -32 33 -7 9 -18 15 -23 12 -5 -4 -9 -1 -9 4 0 6 -18
23 -40 37 -22 15 -37 31 -33 37 3 5 1 7 -5 3 -6 -3 -13 -2 -17 4 -4 6 -11 8
-16 5 -5 -4 -9 -1 -9 5 0 6 -6 18 -14 26 -8 8 -12 26 -10 42 4 27 -28 80 -45
75 -4 -1 -8 5 -8 13 0 7 5 14 11 14 6 0 4 5 -4 10 -13 9 -13 10 0 10 13 0 13
1 0 10 -8 5 -11 10 -6 10 5 0 2 8 -5 17 -12 14 -12 16 1 9 8 -4 6 0 -5 9 -11
9 -19 20 -18 25 2 5 -5 6 -14 3 -11 -4 -14 -3 -9 6 4 6 2 19 -6 28 -11 14 -11
16 0 9 12 -7 12 -4 2 14 -6 12 -14 19 -17 16 -3 -3 -15 -1 -26 5 -10 6 -17 7
-14 2 5 -8 -53 -10 -73 -2 -3 1 -9 1 -14 0 -5 -1 -6 5 -3 14 4 8 2 15 -4 15
-6 0 -8 7 -5 16 3 8 2 12 -4 9 -6 -3 -11 -1 -11 4 -1 6 -2 17 -3 24 -1 6 -8
11 -14 9 -7 -1 -25 11 -39 28 -27 33 -58 37 -81 10 -8 -8 -11 -9 -7 -2 3 6 2
12 -4 12 -5 0 -12 -6 -14 -12 -4 -10 -8 -10 -15 1 -8 11 -10 11 -15 0 -4 -10
-6 -8 -6 4 -1 10 -5 15 -11 12 -5 -3 -10 -1 -10 5 0 33 -65 55 -92 32 -12 -10
-20 -8 -41 8 -14 11 -30 20 -37 20 -6 0 -8 6 -4 13 5 9 4 9 -6 0 -7 -6 -19 -9
-28 -6 -10 4 -13 2 -8 -5 7 -12 -1 -15 -36 -15 -9 0 -16 -4 -15 -10 2 -11 -24
-17 -33 -7 -6 6 -68 30 -92 35 -10 2 -18 -1 -18 -6 0 -6 -4 -7 -10 -4 -5 3
-10 1 -10 -4 0 -6 -6 -10 -12 -9 -7 2 -12 -2 -11 -9 2 -11 -27 -11 -46 1 -5 3
-14 -1 -21 -9 -7 -8 -18 -15 -24 -15 -6 0 -24 -14 -39 -31 -15 -17 -27 -27
-27 -23 0 5 -5 2 -10 -6 -8 -12 -10 -12 -10 -1 0 11 -3 11 -15 1 -8 -7 -15 -8
-15 -3 0 14 -43 9 -48 -5 -2 -7 -10 -12 -17 -12 -8 0 -17 -5 -21 -12 -5 -7 -2
-9 7 -4 8 4 3 -2 -11 -13 -14 -11 -29 -19 -35 -18 -5 2 -18 -5 -29 -14 -10
-10 -24 -16 -29 -12 -6 3 -7 1 -3 -5 3 -5 2 -12 -4 -14 -5 -1 -11 -13 -13 -25
-2 -12 -6 -25 -9 -29 -4 -3 -4 -12 -1 -20 3 -8 -5 -24 -18 -35 -20 -17 -24
-31 -26 -85 -1 -35 3 -66 8 -70 5 -3 5 -13 -1 -25 -8 -14 -8 -19 1 -17 6 2 13
-5 14 -15 2 -9 -1 -15 -6 -11 -5 3 -9 1 -9 -3 0 -5 -7 -18 -16 -29 -8 -10 -12
-12 -9 -4 4 8 -8 -2 -28 -22 -19 -20 -38 -34 -41 -31 -3 4 -6 0 -6 -7 0 -7 -3
-11 -6 -7 -3 3 -17 -6 -31 -21 -13 -15 -21 -20 -18 -12 4 8 -5 2 -20 -15 -14
-16 -30 -30 -34 -30 -4 0 -15 -8 -25 -17 -10 -10 -22 -18 -27 -18 -6 0 -7 -5
-3 -12 5 -8 2 -9 -9 -5 -11 4 -17 1 -17 -8 0 -8 -7 -15 -16 -15 -9 0 -12 -5
-8 -12 5 -8 2 -9 -10 -5 -9 4 -15 3 -13 -1 3 -4 -1 -13 -9 -20 -8 -7 -14 -10
-14 -6 0 4 -9 -3 -20 -16 -11 -13 -20 -20 -20 -15 0 4 -9 -4 -21 -19 -11 -14
-27 -26 -35 -26 -8 0 -14 -7 -14 -16 0 -8 -4 -13 -8 -10 -5 3 -20 -6 -35 -20
-30 -28 -37 -30 -37 -9 0 8 -4 15 -8 15 -4 0 -7 12 -6 28 1 15 -3 32 -8 39 -5
7 -5 14 1 17 5 3 8 17 7 31 -2 13 1 22 5 19 5 -3 9 1 9 9 0 19 47 50 63 40 16
-10 107 -11 101 -1 -3 5 6 7 20 4 14 -3 26 0 26 5 0 6 4 8 8 5 5 -3 24 5 43
18 19 13 39 25 44 27 6 2 9 8 7 12 -1 5 2 6 7 3 5 -4 14 2 20 11 6 10 11 14
11 8 0 -5 8 2 17 15 10 14 17 29 15 33 -1 5 1 6 6 3 11 -6 54 68 45 78 -3 3
-1 6 6 6 7 0 11 7 8 15 -4 8 -2 17 4 21 6 3 8 12 5 20 -3 7 -2 15 3 18 9 6 8
157 -2 173 -4 6 -3 15 3 18 8 5 7 11 -1 21 -9 11 -8 14 2 14 11 0 11 2 -1 10
-11 7 -11 10 -2 10 9 0 10 5 3 19 -6 10 -7 21 -4 25 3 3 0 6 -7 6 -10 0 -11 3
-3 11 8 8 9 15 0 23 -13 15 -57 -2 -57 -21 0 -7 -3 -12 -7 -11 -5 1 -28 -17
-52 -40 -24 -23 -47 -40 -49 -37 -3 3 -11 0 -19 -6 -7 -6 -13 -8 -13 -3 0 4
-7 -1 -16 -12 -8 -10 -12 -12 -8 -4 7 13 5 13 -9 2 -9 -8 -22 -10 -28 -6 -7 4
-10 3 -7 -2 7 -10 -11 -28 -32 -32 -8 -2 -20 -10 -26 -17 -6 -8 -15 -11 -19
-7 -5 4 -5 -1 -2 -11 4 -10 3 -16 -2 -13 -5 3 -12 -1 -15 -10 -3 -8 -11 -12
-17 -8 -7 4 -9 3 -6 -3 3 -5 -1 -21 -11 -34 -9 -13 -17 -28 -18 -34 -1 -5 -8
-23 -15 -40 -15 -36 -18 -177 -4 -187 6 -5 5 -8 -4 -8 -10 0 -11 -3 -2 -14 15
-18 10 -68 -6 -62 -7 3 -13 1 -13 -5 0 -5 -9 -19 -19 -30 -14 -15 -21 -17 -26
-8 -6 8 -4 10 6 5 8 -4 5 0 -5 8 -11 9 -16 16 -12 16 7 0 -42 48 -90 89 -11 9
-13 16 -6 19 6 2 8 10 5 19 -5 12 -3 14 8 8 11 -6 12 -5 2 5 -9 9 -9 19 -2 33
9 15 8 18 -3 11 -10 -6 -11 -5 -2 7 6 8 10 26 9 42 -1 15 3 27 9 27 6 0 4 5
-4 10 -13 9 -13 10 0 10 13 0 13 1 0 10 -8 5 -10 10 -4 10 7 0 11 20 10 53 -1
28 2 58 7 65 6 7 6 12 -1 12 -6 0 -9 17 -7 40 2 22 -1 40 -6 40 -5 0 -9 5 -9
11 0 5 6 7 13 3 9 -6 9 -5 0 8 -7 8 -10 18 -6 21 3 4 1 7 -7 7 -10 0 -10 3 0
15 10 12 10 15 -3 15 -11 0 -14 6 -11 15 4 8 1 22 -6 30 -6 8 -9 19 -5 25 3 5
1 10 -5 10 -6 0 -8 5 -5 10 3 6 1 10 -4 10 -6 0 -11 7 -11 15 0 19 -20 55 -42
76 -10 9 -18 19 -18 23 0 4 -9 16 -20 28 -10 12 -17 25 -14 30 3 4 -2 8 -10 8
-9 0 -16 8 -16 17 0 9 -3 14 -6 11 -3 -4 -22 10 -41 30 -20 21 -33 30 -29 22
4 -8 -1 -5 -12 7 -11 12 -22 19 -26 16 -3 -4 -6 -1 -6 5 0 7 -7 12 -15 12 -8
0 -15 5 -15 10 0 6 -3 9 -7 8 -5 -1 -21 5 -38 12 -16 7 -33 13 -37 12 -5 -1
-8 2 -8 7 0 5 -20 15 -45 22 -25 7 -45 17 -45 22 0 4 -4 6 -9 2 -5 -3 -16 1
-24 9 -8 8 -17 12 -21 9 -3 -4 -17 4 -31 17 -14 13 -25 20 -25 17 0 -4 -9 2
-20 13 -11 11 -20 23 -20 26 0 7 -27 34 -34 34 -4 0 -29 23 -56 50 -27 28 -54
50 -59 50 -5 0 -11 5 -13 12 -2 6 -16 12 -30 12 -17 1 -24 -3 -21 -11z m1693
-3803 c0 -11 5 -22 11 -26 8 -4 8 -9 0 -17 -17 -17 -13 -31 4 -17 9 7 15 8 15
2 0 -13 -28 -24 -34 -13 -3 4 -4 18 -1 30 2 11 -1 21 -6 21 -6 0 -7 5 -4 10 4
6 1 18 -6 26 -10 12 -9 13 5 8 9 -3 16 -14 16 -24z m58 -5 c4 3 0 10 -8 15 -8
6 -10 10 -4 10 6 0 21 -8 32 -19 22 -18 22 -18 -16 -16 -37 1 -42 5 -42 26 0
6 7 3 16 -6 9 -9 19 -13 22 -10z m30 -49 c7 -15 18 -23 29 -22 10 2 12 1 5 -1
-7 -3 -10 -9 -7 -14 4 -5 3 -9 -2 -9 -4 0 -18 16 -31 35 -12 19 -18 35 -14 35
5 0 14 -11 20 -24z m26 9 c3 -8 1 -15 -3 -15 -5 0 -11 7 -15 15 -3 8 -1 15 3
15 5 0 11 -7 15 -15z m26 0 c0 -8 -2 -15 -4 -15 -2 0 -6 7 -10 15 -3 8 -1 15
4 15 6 0 10 -7 10 -15z m860 0 c0 -2 -9 -9 -20 -15 -12 -6 -20 -7 -20 -1 0 5
8 12 18 14 9 3 18 5 20 6 1 0 2 -1 2 -4z m-817 -22 c-7 -2 -19 -2 -25 0 -7 3
-2 5 12 5 14 0 19 -2 13 -5z m764 -15 c-3 -8 -6 -5 -6 6 -1 11 2 17 5 13 3 -3
4 -12 1 -19z m33 -8 c-8 -5 -17 -7 -19 -4 -3 3 1 9 9 14 8 5 17 7 19 4 3 -3
-1 -9 -9 -14z m-825 0 c-3 -5 -12 -10 -18 -10 -7 0 -6 4 3 10 19 12 23 12 15
0z m720 -18 c-3 -3 -11 0 -18 7 -9 10 -8 11 6 5 10 -3 15 -9 12 -12z m38 4 c4
-10 1 -13 -8 -9 -8 3 -12 9 -9 14 7 12 11 11 17 -5z m-412 -13 c13 -16 12 -17
-3 -4 -17 13 -22 21 -14 21 2 0 10 -8 17 -17z m312 2 c-3 -9 -8 -14 -10 -11
-3 3 -2 9 2 15 9 16 15 13 8 -4z m-279 -10 c3 -8 1 -15 -4 -15 -6 0 -10 7 -10
15 0 8 2 15 4 15 2 0 6 -7 10 -15z m156 9 c0 -2 -9 -8 -20 -14 -15 -8 -18 -8
-14 3 4 11 34 21 34 11z m100 -4 c0 -5 -5 -10 -11 -10 -5 0 -7 5 -4 10 3 6 8
10 11 10 2 0 4 -4 4 -10z m151 -32 c-10 -11 -11 -9 -5 7 7 18 6 18 -9 6 -10
-7 -17 -9 -17 -3 0 14 23 21 35 11 5 -6 4 -14 -4 -21z m-176 12 c3 -5 1 -10
-4 -10 -6 0 -11 5 -11 10 0 6 2 10 4 10 3 0 8 -4 11 -10z"/>
<path d="M3180 835 c-7 -8 -16 -12 -21 -9 -8 5 -13 -9 -10 -28 1 -8 -7 -10
-43 -12 -28 -1 -31 -22 -3 -21 29 0 59 23 50 39 -3 6 -3 8 2 4 4 -4 15 -2 24
4 13 10 14 10 4 -1 -13 -15 2 -61 20 -61 5 0 3 8 -4 17 -10 11 -10 14 -1 9 6
-4 12 -3 12 1 0 5 7 18 15 29 13 16 14 16 9 2 -4 -11 -1 -18 6 -18 6 0 9 4 6
8 -3 5 1 9 9 9 8 0 15 -5 15 -10 0 -5 8 -6 18 -3 14 5 14 4 -2 -9 -13 -10 -15
-15 -6 -15 9 0 7 -5 -6 -15 -18 -13 -18 -14 5 -8 16 4 22 3 17 -5 -3 -6 -15
-9 -26 -7 -13 3 -18 0 -14 -7 5 -7 2 -8 -6 -3 -9 6 -11 4 -5 -6 8 -12 6 -12
-8 0 -9 7 -17 9 -17 3 0 -17 27 -35 32 -21 2 7 12 13 22 15 9 1 15 -3 13 -9
-2 -7 -10 -12 -18 -12 -8 0 -14 -5 -14 -12 0 -25 -17 -26 -36 -3 -11 15 -17
18 -13 8 6 -19 -10 -25 -21 -8 -3 5 -13 6 -21 3 -11 -4 -12 -8 -4 -13 8 -5 8
-10 2 -14 -5 -3 -12 1 -16 9 -5 14 26 40 36 29 3 -2 11 3 19 13 12 15 12 16
-3 10 -10 -3 -18 -4 -18 -1 0 2 11 9 24 14 33 12 51 46 30 54 -12 5 -15 2 -10
-9 4 -11 -4 -22 -24 -33 -16 -9 -30 -22 -30 -28 0 -15 -26 -25 -45 -18 -9 4
-15 0 -15 -9 0 -21 -57 -62 -62 -45 -3 7 -22 13 -44 13 -25 0 -38 5 -36 13 3
17 -17 15 -24 -2 -3 -8 -12 -12 -19 -10 -16 6 -29 -12 -15 -21 5 -3 10 -2 10
3 0 5 7 9 14 9 8 0 15 -3 14 -6 -2 -19 4 -22 20 -10 16 13 16 12 -1 -7 -15
-18 -15 -23 -4 -32 8 -7 18 -8 22 -4 5 4 5 -1 2 -11 -4 -10 -7 -23 -7 -28 0
-4 -7 -6 -15 -3 -8 4 -15 10 -15 16 0 5 5 6 11 2 6 -3 3 5 -6 20 -15 23 -34
39 -21 17 3 -4 -6 -7 -19 -5 -17 1 -23 -2 -18 -9 4 -7 -1 -6 -10 2 -16 13 -16
15 -1 32 15 17 15 19 0 25 -9 3 -13 10 -10 15 3 5 -2 6 -10 3 -9 -3 -14 -10
-11 -14 7 -12 -6 -41 -15 -35 -5 3 -12 1 -15 -5 -5 -8 -11 -7 -21 1 -15 13
-20 34 -5 25 5 -4 7 6 5 21 -3 16 -5 36 -5 46 0 20 -7 17 -64 -29 -32 -26 -44
-30 -58 -22 -13 7 -25 5 -43 -7 -14 -9 -23 -19 -20 -22 3 -3 12 -1 19 5 10 9
19 7 37 -5 20 -14 23 -14 18 -1 -4 9 0 15 8 15 8 0 14 -4 14 -9 0 -4 5 -8 11
-8 6 0 8 7 5 15 -4 10 3 20 19 27 14 6 25 15 25 20 0 4 5 8 12 8 9 0 9 -3 0
-12 -19 -19 -14 -32 6 -17 15 13 16 12 3 -3 -7 -10 -17 -16 -21 -13 -4 2 -12
-7 -19 -21 -14 -32 -14 -35 4 -28 8 3 13 10 12 14 -1 4 2 7 8 6 5 0 10 -11 11
-23 0 -13 -4 -20 -9 -16 -6 3 -7 2 -4 -4 3 -5 0 -10 -8 -10 -11 0 -12 4 -4 14
8 9 8 13 1 13 -6 0 -14 -9 -17 -20 -4 -11 -11 -18 -16 -14 -7 4 -6 10 0 18 15
18 -4 43 -21 28 -10 -8 -18 -8 -25 -1 -8 8 -13 8 -17 0 -5 -8 -13 -8 -28 0
-13 7 -18 7 -14 1 3 -6 2 -14 -4 -17 -6 -4 -10 -3 -9 2 4 23 -2 35 -16 29 -8
-3 -22 -3 -30 1 -18 6 -47 58 -38 67 4 3 2 6 -4 6 -6 0 -16 -7 -23 -15 -7 -9
-19 -14 -26 -11 -8 3 -12 -3 -11 -15 2 -24 12 -24 29 0 11 15 15 16 25 6 9
-10 9 -14 -2 -19 -8 -3 -15 -11 -15 -18 0 -9 3 -9 12 0 16 16 31 15 25 -1 -4
-10 4 -14 28 -12 19 1 32 -2 30 -6 -3 -4 2 -12 10 -19 8 -7 15 -17 15 -23 0
-6 -7 -1 -16 11 -9 13 -22 21 -30 18 -7 -3 -16 -1 -19 4 -6 10 -24 8 -44 -4
-9 -6 -12 -5 -8 0 10 17 -31 13 -45 -4 -11 -13 -11 -15 2 -7 8 4 12 4 7 0 -9
-10 -48 -15 -42 -5 2 4 -1 7 -8 7 -7 0 -19 2 -27 4 -8 2 -14 -1 -13 -7 1 -6
-4 -11 -11 -11 -7 0 -13 6 -13 13 0 7 5 11 10 7 5 -3 4 4 -2 14 -13 25 -4 35
20 22 14 -7 27 -5 50 6 17 9 28 19 25 22 -3 3 -12 0 -21 -7 -19 -16 -47 4 -38
28 3 9 -14 -2 -38 -25 -33 -32 -48 -40 -59 -33 -8 5 -11 10 -6 10 5 0 3 6 -3
13 -6 8 -10 16 -8 18 1 2 -4 -3 -11 -11 -7 -8 -17 -15 -22 -15 -4 0 -12 -3
-16 -7 -14 -14 -23 -8 -19 12 4 22 -10 36 -21 19 -4 -7 -15 -1 -29 17 -13 16
-27 26 -31 21 -4 -4 1 -14 12 -23 10 -8 14 -13 7 -10 -13 7 -12 -11 2 -34 7
-12 6 -13 -6 -4 -8 5 -24 9 -36 8 -15 -1 -20 3 -16 15 4 13 3 13 -5 2 -7 -9
-12 -10 -16 -2 -4 6 -2 11 4 11 6 0 8 5 4 11 -3 6 -9 7 -13 3 -10 -15 -33 -16
-25 -2 6 9 3 9 -9 -1 -9 -7 -17 -10 -17 -7 0 4 -10 2 -22 -4 -20 -10 -21 -9
-6 3 15 12 15 14 -3 25 -11 7 -19 8 -19 2 0 -5 5 -10 11 -10 5 0 8 -4 4 -10
-8 -13 -32 -2 -32 15 0 14 10 19 30 16 9 -1 9 13 0 22 -3 4 -14 0 -24 -9 -17
-15 -18 -15 -14 8 7 36 -31 35 -50 -1 -8 -16 -11 -31 -8 -34 3 -4 0 -14 -8
-23 -13 -16 -12 -16 8 -4 16 10 19 18 12 26 -10 12 3 13 51 5 3 -1 -10 -11
-27 -22 -18 -12 -33 -25 -33 -31 0 -5 7 -2 16 6 17 18 39 22 29 6 -6 -10 0
-12 39 -14 11 -1 21 -7 23 -14 3 -8 -1 -10 -14 -6 -15 6 -16 5 -5 -7 11 -12
15 -11 27 4 7 11 11 26 7 35 -5 15 -4 15 12 3 15 -13 19 -13 27 0 5 8 9 12 10
9 0 -3 2 -13 4 -23 2 -13 -1 -17 -12 -13 -9 4 -25 -4 -40 -20 -17 -18 -19 -25
-8 -20 9 3 19 6 21 6 2 0 4 7 4 15 0 8 5 15 11 15 5 0 8 -4 5 -8 -8 -13 27
-11 43 2 12 9 13 8 8 -6 -3 -10 -2 -18 3 -18 6 0 10 7 10 15 0 8 5 15 11 15 6
0 9 -6 6 -13 -3 -7 1 -24 9 -38 7 -13 13 -19 13 -14 1 6 -3 16 -8 24 -11 17
-3 43 10 35 5 -3 7 -10 4 -15 -4 -5 -2 -16 3 -25 6 -11 11 -13 16 -5 4 6 2 11
-3 11 -6 0 -11 5 -11 11 0 6 7 9 15 5 8 -3 19 2 24 12 10 16 10 16 11 0 0 -9
-4 -19 -10 -23 -5 -3 -7 -12 -3 -21 3 -9 0 -14 -7 -12 -7 2 -14 -3 -16 -10 -1
-7 0 -8 3 -2 2 5 9 8 13 5 12 -7 32 30 22 40 -4 4 0 6 8 3 8 -3 14 -12 12 -21
-3 -19 16 -33 30 -19 6 6 4 15 -6 25 -9 9 -13 17 -9 20 16 7 36 2 41 -12 3 -9
0 -11 -7 -6 -9 5 -9 2 0 -13 10 -16 16 -18 30 -9 16 10 16 13 2 36 l-15 26 24
-26 c25 -26 35 -29 100 -31 25 0 35 -4 31 -12 -4 -6 0 -5 9 2 11 9 18 10 23 2
3 -5 1 -10 -6 -10 -7 0 -10 -3 -7 -6 9 -8 51 16 66 37 15 22 37 16 39 -11 1
-12 -3 -17 -13 -13 -7 3 -11 9 -8 14 3 5 3 9 0 9 -3 0 -10 -9 -16 -20 -9 -16
-8 -18 5 -14 8 4 21 1 29 -5 15 -13 27 -5 19 15 -3 8 0 14 6 14 11 0 15 -13
12 -37 -1 -7 12 2 29 18 24 24 34 28 44 20 7 -6 20 -9 28 -6 8 3 21 -1 28 -9
7 -9 16 -13 22 -10 5 3 15 1 23 -6 18 -15 31 6 14 26 -6 8 -9 17 -6 20 3 3 11
-3 18 -14 11 -17 15 -18 26 -6 20 19 34 18 26 -3 -4 -11 2 -9 14 7 12 14 25
21 30 16 4 -5 2 -11 -4 -13 -7 -3 -13 -9 -13 -15 0 -6 7 -4 17 3 15 12 16 12
10 -3 -3 -10 -2 -20 2 -22 5 -3 8 9 7 26 0 17 5 33 12 35 7 3 10 -1 6 -10 -3
-10 3 -20 15 -27 18 -9 22 -7 30 14 10 24 31 44 31 29 0 -5 -6 -15 -12 -23
-11 -12 -10 -12 3 -2 9 7 19 8 25 2 6 -6 15 -5 24 1 12 8 12 9 -4 7 -10 -2
-21 2 -23 9 -3 8 6 10 26 8 22 -3 31 0 31 10 0 8 -5 15 -11 15 -5 0 -7 -5 -4
-10 4 -6 -4 -5 -19 1 -14 7 -23 16 -19 22 3 5 9 4 13 -3 4 -7 13 -9 20 -5 8 5
18 1 26 -9 8 -11 14 -13 19 -7 4 8 11 6 22 -4 14 -14 18 -14 39 0 31 20 40 19
23 -2 -13 -16 -12 -17 3 -4 10 7 15 17 12 23 -7 11 14 38 29 38 7 0 7 -4 -1
-12 -7 -7 -12 -17 -12 -23 0 -5 7 -1 15 9 8 10 12 23 9 27 -3 5 -1 9 4 9 17 0
22 -13 9 -29 -10 -14 -10 -14 4 -4 9 7 20 9 25 5 5 -4 1 2 -9 14 -24 29 -21
41 5 18 12 -10 18 -13 14 -6 -4 7 -2 12 6 12 10 0 10 2 -1 9 -11 7 -8 15 15
37 16 16 27 35 26 43 -2 7 1 10 7 7 5 -4 12 -2 15 3 4 5 -2 8 -11 6 -24 -3
-38 6 -24 15 7 3 9 13 6 21 -4 11 -20 15 -56 14 -36 -1 -53 3 -59 14 -7 12 -9
13 -10 2 0 -10 -3 -11 -14 -2 -10 9 -16 8 -26 -4z m45 -7 c4 4 1 -3 -6 -15
-14 -24 -29 -30 -29 -13 0 6 6 10 13 11 10 0 10 2 0 6 -7 2 -13 9 -13 15 0 7
5 7 13 -1 8 -6 17 -7 22 -3z m100 -17 c14 -1 16 -4 7 -13 -8 -8 -15 -8 -25 0
-8 7 -16 9 -19 6 -3 -3 -9 -1 -12 4 -3 6 2 9 11 7 10 -2 27 -4 38 -4z m14 -50
c7 -12 3 -21 -14 -34 -13 -9 -26 -13 -30 -8 -3 5 -1 12 5 16 7 4 7 12 0 24 -5
10 -7 21 -4 24 9 9 34 -4 43 -22z m-1409 -57 c0 -14 -12 -19 -23 -8 -9 9 4 35
14 28 5 -3 9 -12 9 -20z m1367 -19 c0 -8 -4 -12 -9 -9 -5 3 -6 10 -3 15 9 13
12 11 12 -6z m-178 -21 c-11 -14 -10 -15 7 -12 15 2 18 -2 17 -19 -3 -28 18
-30 41 -4 13 14 14 21 5 27 -8 5 -10 3 -4 -6 5 -9 4 -11 -4 -6 -7 4 -10 2 -9
-5 2 -6 -3 -14 -10 -16 -12 -4 -12 -1 -1 18 7 13 12 28 11 33 -2 5 4 4 12 -3
8 -7 20 -10 25 -7 5 4 12 2 15 -2 3 -5 -11 -23 -31 -41 -32 -29 -37 -30 -53
-16 -9 8 -20 12 -23 9 -4 -4 -13 -1 -21 5 -8 7 -21 9 -28 5 -7 -4 3 8 22 27
35 34 54 43 29 13z m-1149 -25 c0 -14 -17 -10 -23 5 -4 10 -1 13 9 9 7 -3 14
-9 14 -14z m995 12 c3 -5 2 -12 -3 -15 -5 -3 -9 1 -9 9 0 17 3 19 12 6z m-769
-10 c9 7 12 6 10 -3 -3 -20 -25 -55 -26 -40 0 7 -5 10 -12 6 -6 -4 -8 -3 -4 4
3 6 2 13 -4 17 -6 4 -7 11 -4 17 4 6 10 6 17 -1 7 -7 14 -7 23 0z m200 -6 c17
-16 14 -18 -10 -9 -9 3 -16 10 -16 15 0 13 9 11 26 -6z m620 4 c4 -8 9 -7 15
2 6 10 9 10 9 2 0 -6 -4 -14 -10 -18 -5 -3 -6 -13 -3 -23 4 -13 2 -13 -11 3
-12 15 -15 16 -10 3 4 -13 0 -16 -15 -15 -24 1 -26 9 -9 37 14 23 24 25 34 9z
m-145 -18 c-8 -14 -7 -22 4 -31 20 -17 11 -28 -20 -25 -14 2 -25 -2 -25 -7 0
-6 -8 -4 -18 5 -23 21 -27 53 -5 35 11 -9 17 -8 25 3 8 11 9 11 4 -3 -3 -10 0
-20 6 -24 7 -4 8 -3 4 4 -5 8 -1 10 11 6 14 -4 15 -3 4 4 -10 7 -11 14 -2 31
7 11 14 21 17 21 2 0 0 -9 -5 -19z m-786 0 c3 -5 2 -12 -3 -15 -5 -3 -9 1 -9
9 0 17 3 19 12 6z m202 3 c-3 -4 -2 -16 4 -28 10 -20 10 -20 -5 -2 -9 11 -16
14 -16 7 0 -7 -4 -10 -9 -6 -5 3 -12 1 -16 -5 -4 -6 -11 -8 -16 -4 -14 8 9 34
26 28 7 -3 16 -1 20 5 3 6 9 11 12 11 4 0 3 -3 0 -6z m60 -33 c-1 -15 -4 -17
-14 -9 -7 5 -10 14 -7 19 10 16 23 9 21 -10z m359 0 c18 15 24 -3 8 -25 -10
-15 -16 -16 -27 -7 -11 9 -20 7 -40 -9 l-26 -20 3 27 c2 17 9 28 19 28 9 0 19
4 23 8 4 4 12 3 18 -3 6 -6 14 -6 22 1z m-214 -13 c3 -7 9 -8 19 -3 31 20 41
12 16 -12 -20 -21 -29 -24 -40 -15 -8 7 -18 8 -23 4 -4 -4 -3 0 4 9 6 9 9 19
5 22 -3 4 -1 7 5 7 5 0 12 -5 14 -12z m438 8 c0 -3 -4 -8 -10 -11 -5 -3 -10
-1 -10 4 0 6 5 11 10 11 6 0 10 -2 10 -4z m-520 -27 c0 -14 -17 -10 -23 5 -4
10 -1 13 9 9 7 -3 14 -9 14 -14z m185 12 c3 -5 2 -12 -3 -15 -5 -3 -9 1 -9 9
0 17 3 19 12 6z m-285 -11 c0 -5 -5 -10 -11 -10 -5 0 -7 5 -4 10 3 6 8 10 11
10 2 0 4 -4 4 -10z m-55 -10 c3 -5 1 -10 -4 -10 -6 0 -11 5 -11 10 0 6 2 10 4
10 3 0 8 -4 11 -10z m545 -22 c0 -7 -4 -7 -14 1 -8 6 -18 11 -22 10 -21 -3
-28 2 -15 10 17 11 51 -3 51 -21z"/>
<path d="M3309 762 c7 -13 6 -23 -2 -32 -10 -12 -9 -12 5 -1 14 10 15 18 7 32
-5 10 -12 19 -15 19 -2 0 0 -8 5 -18z"/>
<path d="M3096 641 c-4 -5 -2 -12 3 -15 5 -4 12 -2 15 3 4 5 2 12 -3 15 -5 4
-12 2 -15 -3z"/>
<path d="M2160 637 c0 -2 6 -10 14 -16 11 -9 16 -9 22 1 4 7 4 10 -1 6 -4 -4
-14 -3 -22 3 -7 6 -13 9 -13 6z"/>
<path d="M2991 626 c-8 -10 -9 -16 -1 -21 6 -4 9 -1 8 7 -2 7 3 12 10 10 8 -1
11 2 7 8 -8 13 -10 13 -24 -4z"/>
<path d="M2665 578 c-5 -7 -5 -10 0 -6 4 4 14 3 20 -2 9 -7 17 -5 26 7 12 16
12 17 -2 6 -11 -9 -19 -9 -26 -2 -8 8 -13 7 -18 -3z"/>
<path d="M2635 570 c3 -5 8 -10 11 -10 2 0 4 5 4 10 0 6 -5 10 -11 10 -5 0 -7
-4 -4 -10z"/>
<path d="M2509 563 c-13 -16 -12 -17 4 -4 9 7 17 15 17 17 0 8 -8 3 -21 -13z"/>
<path d="M3404 842 c4 -3 14 -7 22 -8 9 -1 13 0 10 4 -4 3 -14 7 -22 8 -9 1
-13 0 -10 -4z"/>
<path d="M1836 824 c-9 -8 -16 -20 -16 -26 0 -6 9 -1 20 12 29 33 25 44 -4 14z"/>
<path d="M1849 798 c-29 -30 -32 -39 -20 -44 9 -4 20 -6 24 -5 5 1 6 -8 2 -19
-4 -12 -2 -20 5 -20 6 0 8 -5 5 -10 -4 -6 -10 -8 -15 -5 -5 3 -12 1 -15 -5 -4
-6 -1 -9 6 -8 6 2 14 -3 16 -10 3 -8 -2 -10 -14 -6 -14 5 -15 4 -3 -4 16 -12
32 -6 28 11 -2 7 7 27 20 44 17 24 29 32 45 29 12 -3 26 -5 31 -5 5 -1 2 -9
-5 -18 -12 -16 -12 -17 2 -6 13 11 19 9 34 -7 13 -14 14 -20 5 -20 -9 0 -7 -5
5 -14 11 -8 24 -11 30 -8 18 11 45 9 56 -4 11 -14 42 -8 34 7 -3 4 -12 6 -20
2 -8 -3 -15 0 -15 7 0 7 -7 10 -16 6 -9 -4 -13 -2 -8 5 4 7 0 9 -12 5 -25 -7
-73 28 -54 39 8 5 11 4 7 -2 -4 -6 4 -10 19 -10 20 0 23 2 13 9 -11 8 -10 9 4
4 9 -3 17 -1 17 4 0 14 -18 22 -24 11 -4 -5 -19 -8 -34 -6 -15 2 -33 4 -40 4
-7 1 -12 8 -10 17 2 10 -2 19 -9 21 -8 3 -11 -3 -8 -16 3 -14 0 -18 -12 -14
-8 3 -10 9 -5 12 5 3 8 14 7 23 -3 17 14 21 25 6 3 -4 11 2 18 12 7 11 9 20 5
19 -5 -1 -10 0 -13 1 -3 1 -21 3 -40 4 -29 2 -41 -5 -71 -36z m52 12 c6 0 8 4
5 8 -6 10 40 10 49 0 3 -3 -4 -5 -16 -4 -12 0 -23 -6 -25 -14 -2 -8 -5 -23 -7
-34 -2 -10 -11 -24 -20 -31 -9 -7 -15 -15 -12 -18 3 -4 2 -5 -2 -2 -3 3 -8 17
-9 32 -2 17 0 23 5 15 6 -10 10 -10 19 1 9 11 7 13 -11 11 -12 -1 -26 -3 -30
-3 -5 -1 -5 -6 -1 -13 4 -7 3 -8 -5 -4 -8 5 -3 17 16 40 15 18 30 28 31 24 2
-4 8 -8 13 -8z"/>
<path d="M1875 800 c-3 -5 -1 -10 4 -10 6 0 11 5 11 10 0 6 -2 10 -4 10 -3 0
-8 -4 -11 -10z"/>
<path d="M1996 832 c-4 -7 -2 -20 3 -29 7 -13 10 -14 11 -4 0 8 3 11 6 8 11
-11 -17 -36 -33 -30 -12 5 -12 7 -2 14 8 4 10 11 6 15 -9 10 -17 1 -22 -25 -2
-12 0 -19 5 -16 4 3 10 0 12 -6 2 -6 16 0 31 14 28 23 28 24 9 47 -13 16 -21
20 -26 12z"/>
<path d="M1792 808 c7 -15 15 -23 17 -17 2 6 -4 18 -13 27 -15 15 -15 15 -4
-10z"/>
<path d="M3100 820 c0 -3 5 -12 10 -20 9 -13 11 -13 20 0 14 22 12 26 -10 26
-11 0 -20 -3 -20 -6z"/>
<path d="M3393 815 c0 -8 4 -12 9 -9 5 3 6 10 3 15 -9 13 -12 11 -12 -6z"/>
<path d="M2112 758 c-17 -17 -15 -33 3 -18 10 9 15 9 15 1 0 -6 -5 -11 -11
-11 -8 0 -8 -4 0 -14 10 -12 8 -14 -14 -12 -14 2 -29 7 -33 11 -4 4 4 4 18 0
24 -7 24 -6 8 11 -17 17 -18 17 -37 0 -11 -10 -25 -15 -32 -10 -8 4 -10 3 -5
-5 4 -6 15 -9 25 -6 9 3 26 -1 36 -9 14 -10 25 -11 38 -5 9 6 22 7 27 4 6 -3
10 -1 10 4 0 6 -4 11 -10 11 -5 0 -10 5 -10 11 0 5 5 7 11 3 8 -5 8 -1 0 14
-15 28 -26 33 -39 20z"/>
<path d="M3241 748 c-14 -23 -14 -23 8 -4 22 20 25 26 13 26 -4 0 -13 -10 -21
-22z"/>
<path d="M3390 754 c0 -9 -5 -12 -12 -8 -7 4 -10 3 -5 -1 4 -5 16 -9 27 -10
14 -1 17 2 10 10 -5 7 -7 15 -3 18 3 4 1 7 -5 7 -7 0 -12 -7 -12 -16z"/>
<path d="M1786 738 c3 -4 12 -4 22 -1 15 6 15 5 3 -11 -9 -11 -11 -20 -4 -27
7 -7 15 -4 24 8 13 16 12 17 -3 4 -11 -8 -18 -9 -18 -3 0 6 5 14 10 17 15 9 2
24 -20 22 -10 -1 -17 -5 -14 -9z"/>
<path d="M1750 719 c0 -5 5 -7 10 -4 6 3 10 8 10 11 0 2 -4 4 -10 4 -5 0 -10
-5 -10 -11z"/>
<path d="M3340 710 c-14 -11 -20 -20 -13 -20 6 0 14 4 18 10 3 5 11 8 18 6 7
-1 9 -1 4 1 -4 3 -5 9 -1 14 8 13 2 11 -26 -11z"/>
<path d="M3222 690 c7 -11 17 -20 22 -20 5 0 1 9 -9 20 -10 11 -20 20 -22 20
-2 0 2 -9 9 -20z"/>
<path d="M1776 682 c-3 -5 1 -9 9 -9 8 0 12 4 9 9 -3 4 -7 8 -9 8 -2 0 -6 -4
-9 -8z"/>
<path d="M3340 680 c-8 -5 -10 -10 -5 -10 6 0 17 5 25 10 8 5 11 10 5 10 -5 0
-17 -5 -25 -10z"/>
<path d="M2605 670 c4 -6 1 -17 -5 -25 -7 -9 -8 -15 -2 -15 15 0 35 28 27 40
-3 5 -11 10 -16 10 -6 0 -7 -5 -4 -10z"/>
<path d="M1801 656 c-9 -11 -9 -16 1 -22 7 -4 10 -4 6 1 -4 4 -3 14 3 22 6 7
9 13 6 13 -2 0 -10 -6 -16 -14z"/>
<path d="M1759 658 c-5 -18 -6 -38 -1 -34 7 8 12 36 6 36 -2 0 -4 -1 -5 -2z"/>
<path d="M2741 651 c-8 -5 -9 -11 -3 -15 5 -3 12 1 16 9 6 17 6 18 -13 6z"/>
<path d="M3321 653 c-1 -6 -4 -20 -7 -30 -5 -17 -5 -17 6 0 6 10 9 23 6 30 -3
9 -5 9 -5 0z"/>
<path d="M3354 646 c1 -8 5 -18 8 -22 4 -3 5 1 4 10 -1 8 -5 18 -8 22 -4 3 -5
-1 -4 -10z"/>
<path d="M2110 640 c0 -5 4 -10 9 -10 6 0 13 5 16 10 3 6 -1 10 -9 10 -9 0
-16 -4 -16 -10z"/>
<path d="M2482 628 c-12 -13 -22 -17 -22 -10 0 9 -8 9 -30 -3 -23 -12 -35 -13
-50 -5 -15 8 -18 8 -14 -3 3 -8 10 -14 17 -15 7 0 23 -3 36 -6 15 -3 32 0 42
10 10 9 23 13 30 8 8 -4 10 -3 5 5 -4 6 -2 18 4 26 19 23 7 18 -18 -7z m-28
-30 c-3 -4 -9 -8 -15 -8 -5 0 -9 4 -9 8 0 5 7 9 15 9 8 0 12 -4 9 -9z"/>
<path d="M1910 624 c0 -6 6 -17 14 -23 11 -9 16 -9 22 1 4 7 4 10 -1 6 -4 -4
-14 0 -21 10 -7 9 -14 12 -14 6z"/>
<path d="M2637 623 c-4 -6 0 -13 8 -17 8 -3 17 0 21 6 4 6 3 8 -4 4 -5 -3 -12
-1 -14 6 -3 8 -6 9 -11 1z"/>
<path d="M2889 613 c-8 -9 -5 -11 13 -7 12 3 28 6 35 6 7 1 10 5 7 9 -7 12
-44 6 -55 -8z"/>
<path d="M1829 603 c-13 -16 -12 -17 4 -4 16 13 21 21 13 21 -2 0 -10 -8 -17
-17z"/>
<path d="M3233 573 c0 -9 4 -10 14 -2 7 6 13 12 13 14 0 1 -6 2 -13 2 -8 0
-14 -6 -14 -14z"/>
<path d="M2053 561 c0 -11 5 -18 9 -15 4 3 5 11 1 19 -7 21 -12 19 -10 -4z"/>
<path d="M2070 576 c0 -3 9 -10 19 -16 15 -7 22 -7 27 2 4 7 4 10 -1 6 -4 -4
-16 -3 -26 3 -11 5 -19 7 -19 5z"/>
<path d="M3100 570 c-8 -5 -11 -13 -6 -17 5 -4 11 -2 13 5 3 6 9 10 14 6 5 -3
9 0 9 5 0 13 -10 14 -30 1z"/>
<path d="M1955 560 c3 -5 8 -10 11 -10 2 0 4 5 4 10 0 6 -5 10 -11 10 -5 0 -7
-4 -4 -10z"/>
<path d="M2115 540 c-3 -5 -1 -10 4 -10 6 0 11 5 11 10 0 6 -2 10 -4 10 -3 0
-8 -4 -11 -10z"/>
<path d="M3015 539 c-4 -6 -5 -12 -2 -15 2 -3 7 2 10 11 7 17 1 20 -8 4z"/>
<path d="M2318 529 c-10 -5 -18 -15 -18 -22 0 -8 3 -9 8 -1 4 6 16 16 27 22
11 6 16 11 10 11 -5 0 -18 -4 -27 -10z"/>
<path d="M2370 533 c5 -2 8 -9 4 -14 -3 -5 0 -9 6 -9 15 0 7 23 -8 26 -7 1 -8
0 -2 -3z"/>
<path d="M2651 524 c-11 -8 -21 -19 -21 -25 0 -5 9 0 20 11 11 11 26 17 35 14
8 -4 15 -4 15 -1 0 13 -30 14 -49 1z"/>
<path d="M2839 533 c0 -5 -2 -15 -4 -24 -1 -9 0 -22 4 -28 4 -7 8 4 8 24 0 30
-6 50 -8 28z"/>
<path d="M2273 515 c0 -8 4 -12 9 -9 5 3 6 10 3 15 -9 13 -12 11 -12 -6z"/>
<path d="M2420 520 c8 -5 22 -9 30 -9 10 0 8 3 -5 9 -27 12 -43 12 -25 0z"/>
<path d="M2710 520 c0 -5 5 -10 10 -10 6 0 10 5 10 10 0 6 -4 10 -10 10 -5 0
-10 -4 -10 -10z"/>
<path d="M2980 520 c-9 -6 -10 -10 -3 -10 6 0 15 5 18 10 8 12 4 12 -15 0z"/>
<path d="M2335 510 c-3 -6 1 -7 9 -4 18 7 21 14 7 14 -6 0 -13 -4 -16 -10z"/>
<path d="M2510 510 c8 -5 20 -10 25 -10 6 0 3 5 -5 10 -8 5 -19 10 -25 10 -5
0 -3 -5 5 -10z"/>
<path d="M2226 498 c3 -4 11 -5 19 -1 21 7 19 12 -4 10 -11 0 -18 -5 -15 -9z"/>
<path d="M2399 508 c-5 -16 -4 -50 1 -53 4 -3 7 6 6 18 -1 12 3 25 9 29 6 5 6
8 -2 8 -7 0 -13 -1 -14 -2z"/>
<path d="M2470 500 c0 -5 5 -10 10 -10 6 0 10 5 10 10 0 6 -4 10 -10 10 -5 0
-10 -4 -10 -10z"/>
<path d="M2655 500 c-3 -6 1 -7 9 -4 18 7 21 14 7 14 -6 0 -13 -4 -16 -10z"/>
<path d="M3135 501 c-3 -5 -2 -12 3 -15 5 -3 9 1 9 9 0 17 -3 19 -12 6z"/>
<path d="M2581 484 c0 -11 3 -14 6 -6 3 7 2 16 -1 19 -3 4 -6 -2 -5 -13z"/>
<path d="M1956 482 c-3 -5 1 -9 9 -9 8 0 12 4 9 9 -3 4 -7 8 -9 8 -2 0 -6 -4
-9 -8z"/>
<path d="M2190 481 c0 -6 4 -13 10 -16 6 -3 7 1 4 9 -7 18 -14 21 -14 7z"/>
<path d="M2329 477 c6 -8 7 -18 3 -22 -4 -5 -1 -5 6 -1 10 6 10 11 1 22 -6 8
-14 14 -16 14 -3 0 0 -6 6 -13z"/>
<path d="M2609 477 c6 -8 7 -18 3 -22 -4 -5 -1 -5 6 -1 10 6 10 11 1 22 -6 8
-14 14 -16 14 -3 0 0 -6 6 -13z"/>
<path d="M2493 465 c0 -8 4 -12 9 -9 5 3 6 10 3 15 -9 13 -12 11 -12 -6z"/>
<path d="M2735 460 c3 -5 8 -10 11 -10 2 0 4 5 4 10 0 6 -5 10 -11 10 -5 0 -7
-4 -4 -10z"/>
</g>
</svg>
